<?xml version="1.0" encoding="UTF-8"?>
<svg width="6366px" height="905px" viewBox="0 0 6366 905" version="1.1" xmlns="http://www.w3.org/2000/svg" xmlns:xlink="http://www.w3.org/1999/xlink">
    <!-- Generator: Sketch 48.2 (47327) - http://www.bohemiancoding.com/sketch -->
    <title>aiesec-logo-white-blue</title>
    <desc>Created with Sketch.</desc>
    <defs></defs>
    <g id="Assets" stroke="none" stroke-width="1" fill="none" fill-rule="evenodd">
        <g id="aiesec-logo-white-blue" fill-rule="nonzero">
            <path d="M5793.93027,399.62555 C5790.60923,393.943765 5780.92619,383.990638 5778.20533,380.199447 C5767.80206,365.964975 5749.31626,336.50572 5733.01113,314.678862 C5722.61787,300.764491 5707.7632,288.040493 5708.0633,282.10863 C5708.4034,275.376515 5731.79075,259.801622 5731.88078,239.445226 C5731.97081,219.338909 5717.40623,198.512366 5707.78321,178.966226 C5700.02077,163.221279 5693.86884,141.764538 5693.54874,133.321886 C5693.27865,126.169639 5693.46871,114.145861 5706.55282,116.636644 C5726.40906,120.397825 5735.67197,93.5393872 5741.20371,69.0416908 C5743.98458,56.7578316 5742.32406,22.7471464 5723.3681,10.7333721 C5708.80353,1.5004714 5682.6253,-3.44108108 5657.80751,20.2063482 C5642.61273,34.6808957 5642.25262,64.4702546 5637.12101,88.8779227 C5632.78965,109.484397 5612.85338,161.340688 5599.29913,206.434855 C5592.24691,229.922234 5567.21905,291.841688 5563.58791,301.004566 C5553.6848,326.012423 5547.58288,379.609261 5536.57942,415.220449 C5535.81918,417.671219 5527.20648,427.224221 5525.71601,428.414595 C5516.53312,435.696882 5509.54093,458.143935 5526.49625,462.625343 C5559.96677,471.478124 5556.77577,430.925383 5557.62603,428.414595 C5565.92864,403.706832 5579.63295,376.638328 5588.18563,347.229089 C5589.39602,343.077784 5594.82772,322.69138 5597.01841,318.960207 C5598.08875,317.139635 5607.95184,296.483146 5611.87308,291.061442 C5611.87308,291.061442 5615.80431,333.974925 5602.94027,362.924019 C5601.25974,366.715211 5590.39633,394.363897 5588.7058,410.548982 C5584.07434,454.992945 5596.83835,483.631942 5613.71365,523.584494 C5625.9675,552.653627 5642.26262,601.248894 5647.72434,616.613721 L5623.81683,631.218309 C5584.43446,655.225852 5539.3603,730.84961 5504.00919,756.897794 C5499.5978,760.148815 5489.78472,762.699617 5484.6431,769.68181 C5474.14981,783.926285 5492.95572,796.690295 5495.70658,800.911622 C5500.5481,808.403975 5526.82636,846.926078 5531.58785,851.857627 C5546.12242,866.92236 5550.45378,840.223972 5543.67165,828.170185 C5532.45813,808.223919 5531.16772,782.405808 5539.01019,774.903451 C5547.3428,766.900937 5576.73204,749.715537 5592.86711,736.491383 C5597.86868,732.390094 5628.1682,712.943985 5628.1682,712.943985 C5628.1682,712.943985 5621.03596,744.864013 5625.72743,785.416754 C5628.33825,807.983843 5629.30855,838.59346 5629.41859,843.645047 C5629.61865,853.318086 5627.04784,864.971747 5622.06628,876.325314 C5615.41419,891.470072 5624.06691,903.253774 5633.5799,903.253774 L5733.61132,903.253774 C5739.75325,896.251574 5734.15149,890.449752 5704.83228,882.627294 C5693.64877,879.626351 5673.96258,871.543812 5670.96164,849.676942 C5668.62091,832.6716 5673.27237,791.078532 5678.63405,767.651172 C5682.25519,751.786188 5698.35025,666.469384 5698.35025,666.469384 C5698.35025,666.469384 5720.41718,655.465927 5726.94923,645.082665 C5733.2212,635.129538 5735.49191,620.424918 5733.95143,593.936596 C5732.72104,573.200082 5732.15086,514.431618 5716.3359,448.630946 C5691.62813,345.818646 5693.53873,333.084645 5693.53873,333.084645 C5693.53873,333.084645 5705.45248,347.799268 5712.70475,353.551075 C5731.43064,368.405742 5755.09807,389.442351 5762.37036,399.11539 C5766.37162,404.407052 5764.92116,410.558985 5764.79112,414.65027 C5764.421,426.794085 5773.98401,440.898517 5783.91713,436.267062 C5800.75242,428.364579 5798.92184,408.198243 5793.93027,399.62555 Z" id="Shape" fill="#FFFFFF"></path>
            <path d="M6340.19189,837.883237 C6332.29941,838.393397 6281.28338,841.514378 6274.47124,834.052033 C6247.33272,804.322693 6219.36393,698.009293 6203.74903,665.208988 C6195.0763,646.953253 6151.44259,497.296235 6120.5929,432.355833 L6121.11306,391.583023 C6121.11306,391.583023 6134.05713,396.794661 6136.96805,398.655245 C6147.80145,405.567417 6184.53299,427.834412 6199.91782,445.589991 C6204.86938,451.301785 6212.61181,464.285864 6214.19231,466.896684 C6220.95443,478.040185 6239.9604,477.660066 6253.0145,469.407473 C6259.34649,465.406216 6264.33806,445.029815 6247.63281,433.596223 C6242.71127,430.225163 6225.85597,423.94319 6216.29297,416.020701 C6209.78092,410.629007 6154.6436,361.093444 6147.6514,353.501059 C6143.07997,348.499488 6122.93364,329.643564 6122.93364,329.643564 C6121.8633,316.099309 6115.21121,235.544001 6106.49847,200.773077 C6101.93704,182.57736 6097.40562,170.853677 6097.59568,161.900864 C6097.73572,155.038708 6096.06519,122.988639 6111.60008,125.819529 C6136.67795,130.390965 6150.8424,79.2548994 6147.68141,48.8553488 C6144.98056,22.8471779 6129.15559,0.100031427 6092.9142,0.100031427 C6079.01984,0.100031427 6052.70157,13.8343463 6047.57996,36.9516091 C6041.13794,66.0907637 6047.39991,76.8641483 6047.57996,91.6988089 C6047.62998,95.8501131 6048.08012,104.182731 6047.57996,108.314029 C6046.98978,113.195563 6043.45867,137.643243 6037.68685,144.325343 C6029.68434,153.54824 6008.93782,165.662046 5990.21194,196.481728 C5975.61735,220.489271 5962.4032,276.967014 5952.5401,310.017398 C5937.15527,361.533583 5929.12275,440.758473 5917.21901,460.414648 C5908.72634,474.419048 5904.39498,489.373746 5905.64537,503.888306 C5908.17617,533.177508 5940.53633,525.425072 5947.01837,512.811109 C5953.83051,499.546942 5953.13029,480.620996 5954.02057,471.348083 C5956.29128,446.810374 5996.764,336.385682 5996.764,336.385682 C5996.764,336.385682 5994.11316,409.838759 5993.11285,421.992577 C5987.19732,442.425055 5982.52068,463.196016 5979.10845,484.192118 C5976.37759,500.657291 5976.10751,515.261879 5973.78678,542.080305 C5970.51575,579.692121 5963.78364,626.276757 5956.31129,660.05737 C5923.80107,694.168086 5905.82543,756.587696 5874.06545,797.920682 C5868.59373,805.04292 5840.54492,824.659082 5859.98102,847.866373 C5870.43431,860.340292 5891.54094,877.875801 5897.29275,882.947395 C5900.29369,885.598228 5916.85889,901.683281 5928.58258,903.263777 C5936.63511,904.35412 5951.48977,904.204073 5952.87021,895.621376 C5953.61044,891.039937 5936.77515,883.167464 5934.91457,880.856738 C5925.54162,869.233086 5918.90954,850.217112 5917.97925,839.723815 C5917.5291,834.782263 5919.62976,831.031084 5921.29029,827.650022 C5927.29217,815.496204 5992.98281,725.147819 6011.80872,692.317505 C6031.38487,658.186782 6054.60217,578.911876 6068.29647,545.271307 C6079.17989,578.761829 6135.17748,676.312476 6160.66549,723.807398 C6172.11909,759.588639 6190.81496,791.828768 6224.3655,852.677885 C6230.27736,863.401254 6231.51775,888.239057 6240.2605,892.690456 C6245.88226,895.521345 6253.80475,894.030877 6268.67942,886.608545 C6311.69294,865.151804 6365.70991,862.110849 6365.70991,851.757596 C6365.6799,842.524695 6347.67424,837.403086 6340.19189,837.883237 Z" id="Shape" fill="#FFFFFF"></path>
            <path d="M4930.60087,553.678052 L4930.8937,553.054184 C4930.65179,553.02872 4930.56267,553.245164 4930.60087,553.678052 Z" id="Shape" fill="#FFFFFF"></path>
            <path d="M5353.64195,903.233768 C5354.21213,901.863338 5357.64321,899.232511 5355.14242,894.951166 C5346.13959,879.436292 5277.31797,874.474733 5272.61649,853.248064 C5271.71621,849.176785 5282.98975,775.573661 5284.99038,761.649287 C5287.83127,741.883077 5298.22454,660.257432 5304.73658,626.276757 C5320.24146,545.401348 5309.84819,455.473096 5312.62906,454.082659 L5338.75727,491.144302 L5392.03401,454.642835 C5394.13467,454.732863 5412.55046,463.005462 5428.76555,444.21956 C5432.76681,439.528086 5432.17662,427.554324 5432.55674,426.003837 L5495.70658,372.477021 L5404.78802,248.087942 C5404.78802,248.087942 5324.76288,321.751084 5318.26083,320.360647 C5317.1905,320.130575 5316.75036,292.181794 5317.12047,269.534679 C5317.46058,248.888193 5316.8804,215.99786 5310.11827,199.812775 C5304.34646,185.91841 5298.16452,168.392904 5300.20516,161.850849 C5300.57528,160.670478 5304.42649,159.009956 5304.11639,153.558243 C5303.70626,146.315968 5301.78566,141.174353 5301.64561,139.673881 C5300.42523,125.91956 5301.83567,121.958316 5314.14954,123.918931 C5340.29776,128.080239 5352.05145,66.9010182 5352.66164,64.3002011 C5353.27183,61.699384 5353.26183,34.5208454 5341.95828,22.577093 C5336.59659,16.9153143 5324.8529,-1.35042426 5289.47179,4.70147706 C5265.21417,8.85278127 5247.45859,29.3992363 5246.19819,55.4974356 C5245.19788,76.7040981 5256.98158,87.9476304 5255.92125,114.666025 C5255.92125,115.856398 5255.69118,120.517863 5254.92093,121.428149 C5246.27822,131.551329 5215.37851,153.748303 5202.65451,171.443862 C5191.06087,187.548922 5178.06679,223.850327 5173.90548,233.233275 C5170.01426,241.996028 5160.9014,258.931348 5157.21024,267.774126 C5150.722,283.935543 5145.28235,300.498413 5140.92512,317.359705 C5127.821,370.846508 5135.29335,439.328023 5134.54311,446.280207 C5134.35305,448.000748 5132.09234,450.901659 5130.95199,452.202068 C5129.81163,453.502476 5126.38055,455.623143 5125.01012,456.933554 C5122.7194,459.134246 5115.91726,464.365889 5116.72752,471.248052 C5118.17797,483.691961 5126.26051,501.25748 5144.06611,496.255908 C5153.16897,493.695104 5158.41061,482.251508 5159.55097,480.771043 C5160.55129,479.470635 5165.93298,470.577841 5166.73323,468.847297 C5168.02363,466.08643 5168.84389,459.934497 5169.15399,456.903545 C5169.42407,454.252712 5168.89391,438.247684 5169.15399,435.596851 C5169.60413,431.065427 5181.67792,356.05186 5188.64011,342.247524 C5196.96272,325.752341 5207.27596,293.992363 5207.27596,293.992363 C5207.27596,293.992363 5207.59607,343.918048 5207.21595,348.669541 C5206.61576,356.171898 5203.06464,370.906527 5202.46445,378.408884 C5202.27439,380.789632 5202.84457,385.591141 5202.46445,387.951882 C5201.56417,393.51363 5184.17871,422.392703 5185.61916,454.142678 C5186.79953,480.150849 5198.90333,495.335619 5196.50258,507.049299 C5194.50195,516.922401 5174.41564,598.257954 5172.7051,602.15918 C5171.70479,604.509918 5168.32373,608.511175 5166.70322,610.53181 C5159.70102,619.484623 5146.01672,638.070462 5138.9445,646.983262 C5126.35054,662.82824 5089.63901,721.686732 5089.63901,721.686732 C5089.63901,721.686732 5072.05348,660.337458 5064.55113,639.030764 C5060.08972,626.346779 5008.40349,495.155563 5004.66231,483.111779 C5002.66168,476.619739 4982.79544,389.542382 4989.09742,385.501113 C4992.94863,383.030336 5045.6952,417.511169 5055.92842,428.414595 C5057.92904,430.575273 5070.81309,445.419937 5072.53363,448.530915 C5073.58396,450.441515 5077.89532,457.853843 5089.22888,456.903545 C5091.30953,456.723488 5103.91349,455.413077 5105.92412,454.632832 C5110.84567,452.712228 5116.92758,440.71846 5111.84598,428.414595 C5111.33582,427.174205 5107.60465,420.902234 5103.54338,417.731238 C5098.64184,413.910038 5047.81587,383.190387 5043.97466,380.829645 C5035.68206,375.728042 4992.87861,326.54259 4992.73856,324.872065 C4990.23778,296.163045 5003.94208,285.589723 5000.45099,260.311782 C4996.6798,232.993199 4978.44407,212.156653 4972.60224,203.533944 C4946.88416,165.431974 4952.66597,127.380019 4959.27805,127.360013 C4980.83482,127.289991 4994.04898,119.587571 5001.96146,86.9773256 C5005.16247,73.7731772 5010.56416,51.9663262 4999.96083,30.9597266 C4993.08867,17.3254431 4965.69007,6.25196417 4943.00294,8.56269013 C4917.71499,11.1435009 4908.04195,31.5699183 4904.6809,38.9322313 C4883.9844,84.0664111 4897.32859,110.784805 4880.05316,155.969001 C4873.171,173.974657 4843.42165,216.658067 4855.47544,238.274859 L4854.00498,245.407099 C4854.00498,245.407099 4834.28878,200.75307 4819.94428,153.568246 C4818.94396,150.267209 4823.23531,146.025877 4823.40536,141.654503 C4823.75547,132.211537 4821.53478,128.170267 4821.94491,127.380019 C4822.35503,126.589771 4822.80518,117.746992 4830.12748,119.087414 C4856.9359,123.97895 4865.13848,98.7010088 4868.74961,83.3861974 C4875.04159,56.6077844 4873.31104,28.4189283 4864.06814,20.2363576 C4843.22159,1.76055311 4817.33346,1.23038655 4809.15089,3.56111879 C4781.27213,11.4535984 4770.20865,33.0803928 4771.13894,53.5768322 C4772.69943,89.878237 4786.42375,101.711955 4775.86043,116.686659 C4772.39934,121.598202 4708.94941,156.279098 4696.96564,184.447948 C4662.89494,264.543111 4654.16219,341.88741 4653.71205,344.948372 C4653.15188,348.769573 4629.0343,331.003991 4626.00335,328.283136 C4621.702,324.41192 4625.09306,278.667549 4617.28061,233.253281 C4613.67948,212.316703 4596.83418,166.882429 4594.72352,158.999953 C4593.05299,152.798004 4594.30339,129.720754 4600.60537,130.991153 C4622.31219,135.292505 4641.86833,89.4380987 4642.36849,69.1117128 C4642.98868,44.3339283 4638.60731,24.0975707 4629.20435,16.7452608 C4611.92893,3.27102766 4588.2915,1.00031427 4580.349,3.59112822 C4556.98166,11.2235261 4542.98727,25.2179227 4541.06666,39.3823727 C4537.56556,65.200484 4545.22797,82.1258014 4545.82816,91.6988089 C4546.08824,95.84011 4546.56839,104.222744 4545.82816,108.314029 C4544.91787,113.3156 4540.66654,142.764852 4523.18104,161.910867 C4493.17162,194.761188 4482.66832,246.367401 4482.66832,246.367401 C4474.04328,225.106537 4464.16277,204.376852 4453.07902,184.287898 C4448.83245,176.860428 4445.37583,169.008438 4442.76578,160.860537 C4438.13432,145.925845 4435.11338,131.01116 4440.76515,131.501314 C4475.21597,134.502256 4492.67146,66.2808234 4491.06095,53.2567316 C4488.20005,29.9794186 4469.05404,5.76181018 4442.93583,5.93186361 C4402.67318,6.20194846 4396.83135,43.3436172 4395.92106,54.5871496 C4394.7607,68.5915493 4395.02078,100.371534 4394.51062,108.304026 C4394.07048,115.216197 4389.24897,132.081496 4387.7585,138.84362 C4385.93793,147.08621 4370.00292,157.789573 4359.96977,194.070971 C4359.96977,194.070971 4345.65527,176.745528 4344.4849,172.554211 C4341.78405,162.831157 4347.99601,142.544783 4351.81721,129.310625 C4355.85679,129.966944 4359.93201,130.381146 4364.02104,130.551015 C4374.31427,130.490996 4388.73881,112.9955 4390.71943,74.5334161 C4392.00983,49.5255594 4384.9076,32.7502891 4370.39304,18.2357291 C4363.48087,11.3235575 4345.38519,3.52110622 4313.42514,3.52110622 L0,3.52110622 L0,903.183752 L4535.765,903.183752 C4548.98915,903.183752 4540.25641,887.028677 4531.05352,884.097756 C4515.90876,879.276241 4502.28448,869.313111 4498.04315,865.431892 C4492.93154,860.710409 4471.1547,751.716166 4471.1547,751.716166 L4496.9428,710.933353 L4531.9538,791.608699 C4531.9538,791.608699 4520.84031,802.132005 4518.79967,813.215487 C4515.57865,830.670971 4543.69749,871.083668 4546.80847,876.835475 C4553.49057,889.129337 4561.81318,903.183752 4570.81601,903.183752 L4586.49093,903.183752 C4605.28684,903.183752 4670.28726,883.067432 4674.51859,880.606659 C4689.41327,872.023963 4695.82528,867.182442 4691.77401,859.029881 C4688.77307,852.897954 4670.89745,853.518149 4669.41699,853.168039 C4661.41447,851.247436 4627.95396,852.297766 4615.75013,843.615038 C4607.74761,837.953259 4604.29653,829.420578 4598.90483,813.455563 C4598.90483,813.455563 4652.51168,747.184742 4663.75521,748.965302 C4672.18786,750.29572 4719.31266,853.688202 4719.84283,855.568793 C4721.23327,860.46033 4713.19074,882.187156 4717.43207,898.282212 C4718.34236,901.7433 4726.57494,903.173749 4727.48523,903.173749 L4847.713,903.173749 C4849.66361,902.713605 4865.34854,898.522288 4855.71552,888.859252 C4852.85462,885.998353 4831.20782,883.437549 4828.70703,882.417228 C4826.7064,881.616977 4812.88206,879.046169 4813.15214,876.945509 C4813.15214,876.945509 4842.41134,867.762624 4848.52326,863.941424 C4851.61423,861.990811 4858.81649,858.829818 4860.52703,855.588799 C4861.52734,853.738218 4865.5286,848.386537 4862.0275,841.754453 C4859.26663,836.552819 4842.91149,838.303369 4840.24065,838.543444 C4835.11904,838.993586 4795.22651,842.814786 4794.94642,840.15395 C4791.53535,802.041977 4860.63706,695.628545 4866.13879,687.886113 C4885.97502,659.987348 4930.76909,553.023743 4930.76909,553.023743 C4930.76909,553.023743 4965.38997,620.404912 5003.56196,672.501279 C5007.1931,677.50285 5047.57579,757.948124 5047.33572,765.010343 C5047.2857,766.37077 5031.47073,787.307348 5023.24815,790.568372 C5015.90584,793.479287 5000.07087,800.751571 4997.57008,806.863492 C4995.46942,811.995104 4995.25936,818.867263 4997.57008,823.40869 C5003.46193,834.842282 5033.5814,876.805465 5036.30225,880.76671 C5037.37259,882.347206 5045.81524,895.691398 5053.35761,899.8327 C5066.15163,906.834899 5084.81749,903.193755 5084.81749,903.193755 C5085.33766,902.913668 5086.67808,895.191241 5082.64681,891.670135 C5078.8056,888.269067 5073.55395,880.666678 5069.09255,873.834532 C5066.17163,869.363127 5059.60957,850.197106 5060.66991,837.993272 C5061.36012,830.080786 5069.80277,815.67626 5071.67336,815.476197 C5071.67336,815.476197 5088.44863,847.106135 5092.44989,864.771684 C5094.32048,873.014274 5094.75061,876.995525 5099.28204,883.937706 C5104.28361,891.660132 5116.28738,890.169664 5121.52903,887.448809 C5131.42213,882.29719 5171.4147,866.442209 5180.23747,863.341235 C5187.45974,860.81044 5208.06621,848.616609 5205.09528,840.684117 C5199.55354,825.869463 5154.30932,837.683174 5128.29115,830.19082 C5116.82755,826.889783 5109.06511,780.755289 5109.06511,780.755289 C5113.65655,773.002854 5154.58941,730.629541 5162.02175,724.73769 C5194.51195,698.939585 5226.492,655.585965 5227.64236,653.315251 C5228.12251,652.374956 5228.92277,649.474045 5229.93308,649.764136 C5230.78335,650.014214 5229.9931,652.424972 5229.93308,653.315251 C5229.64299,657.516571 5223.9312,734.120638 5223.57108,781.725594 C5223.45105,799.541191 5230.26319,839.743821 5224.35133,864.28153 C5223.72113,866.902354 5220.4501,876.365327 5219.1597,882.457241 C5216.37882,895.521345 5226.24192,902.463526 5226.57203,903.213762 L5353.64195,903.233768 Z M4313.31511,836.042659 C4312.15475,833.53187 4329.27012,745.464202 4329.27012,745.464202 C4329.27012,745.464202 4354.61809,809.484315 4355.75844,815.206113 C4355.75844,815.206113 4349.46647,830.430896 4346.50554,838.493429 C4342.82438,848.496571 4362.32051,869.943309 4362.32051,869.943309 C4362.32051,869.943309 4326.05911,863.621323 4313.33512,836.042659 L4313.31511,836.042659 Z M4391.49967,766.91094 C4391.49967,766.91094 4371.49339,688.136191 4371.80349,685.475355 L4381.36649,673.541606 L4411.06582,739.432307 L4391.49967,766.91094 Z M4425.18025,863.541298 C4417.89797,858.019563 4411.9561,831.841339 4411.9561,831.841339 L4429.1415,800.941631 L4446.22687,860.480336 C4446.22687,860.480336 4430.05179,867.222454 4425.19026,863.541298 L4425.18025,863.541298 Z M4574.14706,749.505471 C4574.14706,749.505471 4541.94694,675.372181 4541.53681,660.21742 C4541.40677,655.295874 4563.87383,615.953514 4574.54718,617.303938 C4579.27867,617.904126 4622.08212,683.80483 4621.65198,692.787652 C4621.22184,701.770475 4574.14706,749.475462 4574.14706,749.475462 L4574.14706,749.505471 Z M4696.81559,572.329808 C4690.74369,593.206367 4682.12098,617.684057 4676.92935,617.624038 C4676.92935,617.624038 4662.29475,587.774661 4647.20001,546.511697 C4638.97742,524.044639 4625.03304,494.385321 4625.44317,474.48907 C4626.11338,441.568727 4620.7717,398.465185 4624.55289,396.084437 C4627.37378,394.333887 4647.84021,405.917527 4650.01089,409.42863 C4650.01089,409.42863 4654.84241,465.626285 4654.14219,468.637231 C4654.14219,468.637231 4646.42976,478.070195 4646.00963,489.213696 C4645.50948,502.637913 4654.53231,521.673894 4673.31821,521.223752 C4695.2451,520.693586 4698.80622,499.947068 4699.15633,501.217467 C4699.11632,501.137442 4703.5277,549.13252 4696.81559,572.329808 Z M4732.4868,751.576122 L4714.94129,706.72203 C4716.07164,701.380352 4736.47805,684.465038 4737.49838,684.775135 L4732.4868,751.576122 Z M4845.52231,484.492212 C4833.34849,519.443193 4817.67356,635.539667 4817.67356,635.539667 C4826.67639,577.661483 4814.67262,497.996455 4815.2428,480.731031 C4816.44318,446.720346 4825.95617,336.685776 4834.58888,321.410977 C4835.10904,320.480685 4874.40139,388.211964 4874.70148,392.08318 C4875.68179,414.630264 4859.28664,444.839755 4845.4723,484.522222 L4845.52231,484.492212 Z" id="Shape" fill="#FFFFFF"></path>
            <path d="M975.466461,140.764224 C981.768441,130.260924 996.743146,85.5468762 1011.47777,85.5468762 C1023.84166,85.5468762 1066.07493,216.047876 1118.1813,355.791779 C1175.36926,509.259994 1233.7276,670.260575 1233.7276,670.260575 C1247.24184,712.213755 1263.73703,757.568004 1280.74237,770.57209 C1314.00282,795.970069 1336.42986,778.814679 1336.2198,804.942888 C1336.09976,819.637505 1313.68272,820.41775 1303.20943,820.41775 L1023.0214,820.41775 C1004.12547,820.41775 1005.08577,812.705327 1005.01574,806.563397 C1004.71565,781.39549 1071.67669,800.65154 1083.09027,727.308498 C1085.19093,713.824261 1063.37408,587.704639 1027.20272,582.543017 C1002.94509,579.071926 969.854698,578.241666 896.371612,578.241666 C840.734133,578.241666 803.232351,577.241351 788.537734,579.342011 C753.896851,584.593661 710.623256,663.098325 705.451631,720.966505 C698.50945,798.660915 813.395544,765.060358 813.485572,804.992904 C813.485572,809.284252 811.484943,820.467766 802.05198,820.467766 L571.979698,820.467766 C554.134092,820.467766 549.972784,815.466194 549.972784,807.093564 C549.972784,781.895647 603.419576,783.996307 629.657819,734.650805 L975.466461,140.764224 Z M849.60692,440.638435 C840.15395,459.534371 813.505578,499.436908 813.505578,512.040867 C813.505578,530.936804 873.194331,524.884903 898.392247,524.884903 C968.734346,524.884903 1016.17925,527.165619 1021.34087,516.802363 C1026.03235,507.379403 997.483378,449.031072 988.030409,422.772822 L956.290437,340.036829 C948.938127,320.090563 939.785251,306.446276 933.493275,306.446276 C919.598909,306.446276 919.138765,317.339698 909.485732,334.795182 L849.60692,440.638435 Z" id="Shape" fill="#037EF3"></path>
            <path d="M1538.92348,693.247797 C1536.25264,794.229522 1634.4635,762.459541 1632.95302,802.001964 C1632.42286,816.006364 1611.35624,819.417436 1606.43469,819.417436 L1327.75714,819.417436 C1306.09033,819.417436 1312.51235,818.417121 1310.62176,804.302687 C1306.88058,776.483947 1322.62553,796.850346 1352.63496,770.38203 C1364.73876,759.698674 1381.94416,740.792734 1385.46527,714.134359 C1396.18864,632.918843 1424.0874,269.614705 1424.0874,269.614705 C1426.08803,252.369287 1436.67136,185.508281 1421.00644,163.35132 C1384.63501,111.905157 1333.16884,152.968058 1337.60023,111.405 C1339.00067,98.2908799 1368.78003,92.2289755 1386.5056,92.2289755 C1410.14302,92.2289755 1444.61385,93.2893086 1526.35953,93.2893086 C1558.85975,93.2893086 1605.92453,91.2286612 1633.5032,91.2286612 C1647.28753,91.2286612 1671.93527,92.7491389 1671.93527,103.902643 C1671.93527,137.383162 1593.49063,117.616952 1585.25804,192.5705 C1571.34367,318.370022 1539.54368,669.920468 1538.92348,693.247797 Z" id="Shape" fill="#037EF3"></path>
            <path d="M2081.17384,404.937219 C2181.91549,386.591455 2159.53846,310.127432 2190.55821,310.147439 C2202.86207,310.147439 2205.14279,319.960522 2201.9918,338.866461 C2195.55978,377.428576 2187.88737,435.756901 2184.09618,535.548253 C2183.70605,545.911508 2176.36375,557.555167 2165.44031,556.724906 C2139.9223,554.794299 2166.54066,450.691593 2054.27539,453.052335 C2054.27539,453.052335 2009.70139,449.711285 1974.91046,464.645977 C1955.90448,474.248994 1958.4853,534.667976 1954.78413,592.876263 C1952.02327,636.379931 1946.93167,681.174004 1946.61157,690.436914 C1944.34085,756.977819 1956.03453,765.220409 2019.58449,764.27011 C2244.3451,760.879045 2267.92251,624.756279 2290.4996,626.406798 C2290.4996,626.406798 2310.65594,621.175154 2304.1639,655.045795 C2285.23795,753.806823 2234.7921,808.403975 2173.22276,819.55748 L1725.88222,819.55748 C1711.52771,819.55748 1701.38452,817.056694 1701.38452,810.864749 C1701.38452,761.419214 1777.15833,803.692495 1790.41249,699.419736 L1830.14497,308.086791 C1832.98587,252.779415 1830.60512,206.424852 1830.60512,189.909664 C1830.60512,113.525666 1742.6875,146.305965 1741.76721,111.405 C1741.30706,93.8694909 1766.2449,90.9885858 1769.31586,90.9885858 C1834.91647,90.9885858 1899.49676,92.1189409 1965.10738,92.1189409 C2196.77016,92.1189409 2253.64803,91.8788655 2276.20511,91.8788655 C2288.50898,91.8788655 2302.21328,93.459362 2301.99321,103.782605 C2301.303,142.354723 2292.15012,182.207244 2291.90004,206.144764 C2291.48992,246.327388 2294.41083,265.043268 2276.21512,269.024519 C2247.206,275.386518 2265.83185,208.165399 2238.02312,179.726464 C2211.19469,146.335974 2120.38616,145.095585 2076.02222,145.245632 C2048.85369,145.33566 2020.34473,138.243432 2001.58884,156.249089 C1991.21558,166.202216 1989.58507,207.745267 1984.80356,260.641886 C1981.71259,294.802618 1978.69164,339.666713 1974.26025,373.487338 C1970.5991,401.416113 1974.91046,408.288272 2003.41941,408.288272 L2081.17384,404.937219 Z" id="Shape" fill="#037EF3"></path>
            <path d="M3236.26673,404.937219 C3337.00838,386.591455 3314.63135,310.127432 3345.6511,310.147439 C3357.95497,310.147439 3360.23568,319.960522 3357.08469,338.866461 C3350.65267,377.428576 3342.98026,435.756901 3339.18907,535.548253 C3338.79895,545.911508 3331.45664,557.555167 3320.53321,556.724906 C3295.01519,554.794299 3321.63355,450.691593 3209.36828,453.052335 C3209.36828,453.052335 3164.79428,449.711285 3130.00335,464.645977 C3110.99738,474.248994 3113.57819,534.667976 3109.87703,592.876263 C3107.11616,636.379931 3102.02456,681.174004 3101.70446,690.436914 C3099.43375,756.977819 3111.12742,765.220409 3174.67739,764.27011 C3399.438,760.879045 3423.01541,624.756279 3445.5925,626.406798 C3445.5925,626.406798 3465.74883,621.175154 3459.25679,655.045795 C3440.33085,753.806823 3389.885,808.403975 3328.31565,819.55748 L2880.9251,819.55748 C2866.57059,819.55748 2856.4274,817.056694 2856.4274,810.864749 C2856.4274,761.419214 2932.20121,803.692495 2945.45537,699.419736 L2985.18785,308.086791 C2988.02875,252.779415 2985.648,206.424852 2985.648,189.909664 C2985.648,113.525666 2897.73038,146.305965 2896.81009,111.405 C2896.34994,93.8694909 2921.28778,90.9885858 2924.35874,90.9885858 C2989.95935,90.9885858 3054.53964,92.1189409 3120.15025,92.1189409 C3351.81304,92.1189409 3408.69091,91.8788655 3431.24799,91.8788655 C3443.55186,91.8788655 3457.25616,93.459362 3457.03609,103.782605 C3456.34588,142.354723 3447.193,182.207244 3446.94292,206.144764 C3446.53279,246.327388 3449.45371,265.043268 3431.25799,269.024519 C3402.24888,275.386518 3420.87473,208.165399 3393.066,179.726464 C3366.23757,146.335974 3275.42904,145.095585 3231.0651,145.245632 C3203.89657,145.33566 3175.38761,138.243432 3156.63172,156.249089 C3146.25846,166.202216 3144.62794,207.745267 3139.84644,260.641886 C3136.75547,294.802618 3133.73452,339.666713 3129.30313,373.487338 C3125.64198,401.416113 3129.95333,408.288272 3158.46229,408.288272 L3236.26673,404.937219 Z" id="Shape" fill="#037EF3"></path>
            <path d="M2855.02696,292.26182 C2855.02696,301.84483 2844.36361,312.088048 2833.72027,312.478171 C2810.00282,313.358448 2819.08567,267.333988 2777.70267,210.025984 C2747.75326,168.562957 2686.62405,129.26061 2634.77777,129.000528 C2569.81736,128.650418 2505.26708,151.647643 2499.00511,226.031012 C2492.70313,300.844516 2537.34716,327.732964 2705.55,383.770569 C2775.04183,406.927844 2848.82501,466.396527 2851.03571,546.931829 C2856.4374,743.683642 2696.66721,841.224287 2579.85051,828.250211 C2545.61975,824.449016 2498.11483,812.90539 2458.50239,803.462423 C2418.88994,794.019456 2387.15997,786.597124 2384.47913,774.883444 C2384.47913,774.883444 2364.39282,645.242715 2359.06114,613.832847 C2355.31997,591.825933 2365.64321,586.104136 2377.35689,586.274189 C2397.64327,586.56428 2404.36538,646.293045 2444.45797,700.490072 C2476.31798,743.503586 2532.15552,786.29703 2597.67611,786.29703 C2665.83752,786.29703 2742.37157,750.095657 2749.89393,664.358721 C2754.68544,609.731559 2723.88576,579.642106 2682.87288,559.515783 C2619.72304,528.50604 2542.53879,522.294089 2455.60147,453.182376 C2395.72266,404.026933 2396.89303,349.319745 2395.78268,287.560343 C2393.88208,181.306961 2515.59032,80.8754085 2625.28478,80.8754085 C2699.8282,80.8754085 2769.15998,123.65885 2801.10002,123.65885 C2809.6227,123.65885 2833.21011,102.452187 2841.73278,102.452187 C2859.83847,102.452187 2856.13731,123.188702 2856.13731,138.103388 C2856.1173,138.053372 2855.02696,259.241446 2855.02696,292.26182 Z" id="Shape" fill="#037EF3"></path>
            <path d="M4194.65783,286.259934 C4195.36805,314.268734 4199.43933,328.783294 4181.21361,330.083702 C4161.1473,331.504148 4143.10163,222.049761 4045.34092,161.520745 C4012.76069,141.334403 3971.17762,130.751078 3917.99091,125.999585 C3866.13462,121.36813 3670.19306,150.537294 3661.7204,457.643777 C3657.71914,604.439896 3734.68332,748.605189 3884.49039,750.465773 C4045.54098,752.466402 4134.3889,617.193903 4160.65715,617.193903 C4169.79002,617.193903 4173.79128,616.303624 4173.79128,626.666879 C4173.79128,671.250886 4006.73879,827.109852 3840.26649,827.109852 C3656.9589,827.109852 3481.36374,707.07214 3500.09962,487.333105 C3506.36159,413.840016 3528.77863,312.72825 3585.3264,237.034469 C3660.96016,135.792662 3787.26984,87.1773884 3893.1431,87.1773884 C4038.72884,87.1773884 4104.29944,140.464129 4130.28761,144.255321 C4156.60588,148.096527 4165.34862,84.0664111 4188.5059,104.312772 C4195.07796,110.044573 4193.97762,259.991681 4194.65783,286.259934 Z" id="Shape" fill="#037EF3"></path>
            <path d="M4258.06775,794.479601 C4256.95648,790.401644 4255.32951,786.482117 4253.22623,782.815937 C4251.15319,779.213251 4248.61754,775.89739 4245.68386,772.952838 C4242.76469,770.01514 4239.49196,767.451383 4235.9408,765.32044 C4221.00015,756.383559 4202.35621,756.383559 4187.41556,765.32044 C4172.59388,774.175508 4163.53819,790.188345 4163.58807,807.453677 C4163.55341,816.073689 4165.82603,824.545947 4170.17014,831.991386 C4174.36102,839.168813 4180.29184,845.175324 4187.41556,849.456873 C4202.36046,858.378355 4220.9959,858.378355 4235.9408,849.456873 C4239.49223,847.307192 4242.7618,844.723125 4245.67386,841.764456 C4248.60219,838.826329 4251.13742,835.52111 4253.21623,831.931367 C4255.32389,828.277941 4256.95117,824.367752 4258.05775,820.297712 C4260.33987,811.826001 4260.33987,802.901296 4258.05775,794.429585 L4258.06775,794.479601 Z M4251.91582,818.847256 C4250.95765,822.420498 4249.5528,825.85868 4247.73451,829.080471 C4244.17667,835.380427 4239.03554,840.642238 4232.81982,844.345267 C4223.07585,850.073955 4211.42803,851.61473 4200.52968,848.616609 C4197.04726,847.647935 4193.71244,846.211037 4190.61656,844.345267 C4187.55964,842.497299 4184.74965,840.268796 4182.25393,837.713184 C4179.72921,835.135098 4177.55943,832.231959 4175.80191,829.080471 C4174.00623,825.856038 4172.62487,822.417774 4171.69062,818.847256 C4170.71383,815.125205 4170.22624,811.291735 4170.24016,807.443674 C4170.22993,803.576077 4170.71742,799.72324 4171.69062,795.980072 C4172.6168,792.38463 4173.99841,788.922204 4175.80191,785.676835 C4177.56996,782.510906 4179.73848,779.585925 4182.25393,776.974101 C4187.25159,771.74212 4193.55832,767.942884 4200.51967,765.970644 C4209.60883,763.419042 4219.29847,764.065254 4227.9683,767.801219 C4232.94957,769.970832 4237.45625,773.097636 4241.23246,777.004111 C4251.79991,788.156323 4255.83524,803.987211 4251.89581,818.837253 L4251.91582,818.847256 Z" id="Shape" fill="#037EF3"></path>
            <path d="M4228.50847,823.578743 C4227.45164,824.088489 4226.42915,824.666562 4225.4475,825.309287 C4224.44369,825.964278 4223.38626,826.533153 4222.28651,827.009821 C4220.99541,827.564955 4219.65603,828.000256 4218.28525,828.310229 C4216.40032,828.699558 4214.47782,828.87738 4212.55345,828.840396 C4209.96933,828.868699 4207.40541,828.382439 4205.01108,827.409947 C4202.72499,826.483429 4200.67452,825.058349 4199.0092,823.238636 C4197.25585,821.274724 4195.92157,818.97377 4195.08797,816.476512 C4193.22297,810.564879 4193.22297,804.222437 4195.08797,798.310805 C4195.92197,795.784297 4197.28617,793.465148 4199.08922,791.508668 C4200.85831,789.631767 4203.01589,788.163792 4205.41121,787.207316 C4208.07483,786.168708 4210.91529,785.659055 4213.77384,785.706845 C4217.43651,785.588054 4221.06691,786.425839 4224.30715,788.137608 C4225.22877,788.628025 4226.1206,789.172478 4226.97799,789.768121 C4227.53173,790.209962 4228.21093,790.465538 4228.9186,790.49835 C4229.36853,790.509421 4229.80906,790.368451 4230.16899,790.098224 C4230.48544,789.86529 4230.77409,789.59678 4231.02926,789.297973 L4234.0302,784.966612 C4231.51167,782.452337 4228.55574,780.418436 4225.30746,778.964727 C4221.46159,777.374897 4217.32346,776.614761 4213.16365,776.734026 C4209.07188,776.692856 4205.01141,777.450584 4201.20989,778.964727 C4193.95552,781.834713 4188.23693,787.614992 4185.44494,794.899733 C4183.91785,798.840829 4183.15733,803.037266 4183.20423,807.263617 C4183.15807,811.442302 4183.85932,815.595587 4185.27488,819.52747 C4186.56488,823.107162 4188.55793,826.392634 4191.13673,829.190506 C4193.68369,831.918358 4196.77913,834.0763 4200.21958,835.522495 C4203.94168,837.072852 4207.94153,837.845589 4211.97327,837.793209 C4216.45054,837.9117 4220.90236,837.083374 4225.03738,835.362445 C4228.57268,833.803754 4231.71136,831.468547 4234.22026,828.530299 L4230.26902,824.258957 C4229.81251,823.781707 4229.16727,823.532409 4228.50847,823.578743 Z" id="Shape" fill="#037EF3"></path>
        </g>
    </g>
</svg>